<svg width="20" height="20" viewBox="0 0 20 20" fill="none" xmlns="http://www.w3.org/2000/svg">
<path fill-rule="evenodd" clip-rule="evenodd" d="M6.45181 0.0991509C6.5378 0.145769 8.44117 2.01065 10.6815 4.24324C14.6524 8.20055 14.7623 8.30253 15.0566 8.30253C15.4265 8.30253 15.7157 8.01462 15.7157 7.64652C15.7157 7.51385 15.4167 6.17543 15.0512 4.67217C14.6858 3.16899 14.3867 1.79895 14.3867 1.62779C14.3867 1.05666 14.8796 0.556273 15.4421 0.556273C15.7348 0.556273 16.1728 0.777651 16.318 0.999028C16.3848 1.10093 16.5726 1.70181 16.7355 2.3344C17.2804 4.45166 17.8317 5.92391 18.9608 8.27614C19.716 9.84944 19.9271 10.5568 19.9897 11.7228C20.1643 14.9756 18.0972 17.9849 15.0121 18.9689C14.1897 19.2312 13.6312 19.3142 12.7118 19.3105C11.3642 19.305 10.2816 19.0184 9.09449 18.3529C8.4568 17.9954 7.5824 17.1679 2.21073 11.8373C0.264053 9.9055 0.23677 9.87396 0.23677 9.55489C0.23677 8.9437 0.563 8.59926 1.14182 8.59926C1.4224 8.59926 1.53325 8.69539 3.48259 10.6295C5.50642 12.6376 5.53237 12.6598 5.85704 12.6598C6.2953 12.6598 6.56884 12.3989 6.56962 11.98C6.57017 11.6935 6.46416 11.5781 3.34484 8.47151C-0.16717 4.9739 -0.162635 4.97953 0.10254 4.42417C0.270463 4.07239 0.63555 3.88404 1.04363 3.9387C1.33226 3.97735 1.5764 4.20045 4.2581 6.87556C7.15767 9.76799 7.16056 9.77057 7.49007 9.77057C8.02371 9.77057 8.3343 9.31985 8.13378 8.83641C8.08171 8.71085 6.73755 7.33433 5.14673 5.7775C3.55591 4.22067 2.165 2.82986 2.0557 2.68681C1.5209 1.98644 2.17602 0.983489 2.99249 1.25266C3.16722 1.31021 4.18625 2.27669 6.25637 4.34819C7.91176 6.00473 9.36506 7.41249 9.48592 7.4766C9.95256 7.72398 10.5556 7.25639 10.4412 6.73594C10.4098 6.59328 9.57528 5.7073 7.89034 4.02811C6.51302 2.65541 5.33568 1.43749 5.274 1.32153C4.87757 0.57603 5.71953 -0.297767 6.45181 0.0991509ZM2.83216 14.5925C2.89712 14.6677 3.05097 14.9175 3.1741 15.1477C3.56748 15.8829 4.58816 16.7511 5.25383 16.9166C5.7576 17.0419 5.90317 17.6158 5.51572 17.9487C5.24734 18.1794 5.12257 18.1579 4.24332 17.7296C3.48071 17.3582 2.70035 16.6369 2.23926 15.8771C1.86355 15.2581 1.79452 14.852 2.02576 14.621C2.23121 14.4158 2.66634 14.4004 2.83216 14.5925ZM1.00493 15.7297C1.09843 15.8291 1.17489 15.9388 1.17489 15.9734C1.17489 16.1255 1.77716 17.005 2.1761 17.4355C2.68213 17.9814 3.31404 18.4304 4.02396 18.7487C4.52796 18.9745 4.69284 19.1478 4.69284 19.4518C4.69284 19.6731 4.35363 20 4.12394 20C3.90497 20 2.66064 19.4017 2.26936 19.1083C1.22922 18.3283 0.00223989 16.6855 0.00223989 16.0728C0.00223989 15.6152 0.679248 15.3835 1.00493 15.7297Z" fill="#FBCA1E"/>
</svg>
