<svg width="28" height="24" viewBox="0 0 28 24" fill="none" xmlns="http://www.w3.org/2000/svg">
<path fill-rule="evenodd" clip-rule="evenodd" d="M4.62379 0.32656C4.23682 1.07504 2.87215 4.48279 2.87383 4.69642C2.87682 5.06774 3.00581 5.17925 3.82928 5.52208C4.91407 5.97368 5.21572 6.21676 5.45109 6.82844C5.67831 7.41898 5.63249 8.04146 5.32772 8.50316C5.14046 8.78673 5.13436 8.78745 2.83601 8.78745C0.944498 8.78745 0.484543 8.82058 0.266291 8.97234C0.0055613 9.15343 0.000296483 9.20758 0.000296483 11.6798C0.000296483 13.4835 0.0412183 14.243 0.143883 14.3449C0.228479 14.4289 0.634591 14.4874 1.13188 14.4874C2.22182 14.4874 2.70379 14.6316 3.19558 15.1047C3.90262 15.7847 3.96269 16.8351 3.33964 17.6211C2.93509 18.1316 2.49751 18.2874 1.46871 18.2874C-0.0582147 18.2874 0.000296483 18.1722 0.000296483 21.1798C0.000296483 22.9834 0.0412183 23.743 0.143883 23.8449C0.352323 24.0517 27.6477 24.0517 27.8561 23.8449C27.9588 23.743 27.9997 22.9834 27.9997 21.1798C27.9997 18.1722 28.0582 18.2874 26.5313 18.2874C25.5025 18.2874 25.0649 18.1316 24.6604 17.6211C24.0373 16.8351 24.0974 15.7847 24.8044 15.1047C25.2962 14.6316 25.7782 14.4874 26.8681 14.4874C27.3654 14.4874 27.7715 14.4289 27.8561 14.3449C27.9588 14.243 27.9997 13.4835 27.9997 11.6798C27.9997 9.20758 27.9944 9.15343 27.7337 8.97234C27.5875 8.87069 27.3384 8.78745 27.1802 8.78745C27.0219 8.78745 22.0557 6.81027 16.1441 4.39372C10.2326 1.97718 5.26012 0 5.09427 0C4.88595 0 4.74045 0.101056 4.62379 0.32656ZM14.9527 5.279C19.5241 7.1493 23.2887 8.70385 23.3187 8.73353C23.3486 8.76322 19.5962 8.78745 14.9801 8.78745H6.58734L6.704 8.48285C6.8994 7.97259 6.8379 6.75838 6.58901 6.21439C6.28928 5.55925 5.49823 4.81267 4.83941 4.56294C4.54709 4.45215 4.3079 4.34884 4.3079 4.33328C4.3079 4.31784 4.41032 4.07132 4.53536 3.78537C4.66052 3.49954 4.93382 2.85378 5.14261 2.35052L5.5224 1.43544L6.08179 1.65691C6.38943 1.77875 10.3814 3.4087 14.9527 5.279ZM26.7767 11.6671L26.7433 13.2405L25.9656 13.3083C25.0429 13.3887 24.467 13.6393 23.8916 14.2104C23.3012 14.7962 23.0534 15.3692 22.9975 16.2776C22.9595 16.8973 23.0049 17.1861 23.2178 17.6774C23.711 18.8151 24.9347 19.5936 26.2296 19.5936H26.8101L26.7767 21.1671L26.7433 22.7405H14H1.25668L1.2233 21.1671L1.18991 19.5936H1.77036C3.06527 19.5936 4.28899 18.8151 4.78221 17.6774C4.99508 17.1861 5.04055 16.8973 5.0025 16.2776C4.94662 15.3692 4.69881 14.7962 4.10843 14.2104C3.53301 13.6393 2.95711 13.3887 2.03444 13.3083L1.25668 13.2405L1.2233 11.6671L1.18991 10.0937H14H26.8101L26.7767 11.6671ZM19.2888 11.5424C19.2002 11.6303 19.1452 12.0614 19.1452 12.6664C19.1452 13.5152 19.1764 13.6645 19.3766 13.7708C20.0521 14.1295 20.3417 13.7788 20.3417 12.6027C20.3417 11.6042 20.2402 11.3999 19.7435 11.3999C19.5724 11.3999 19.3677 11.4641 19.2888 11.5424ZM7.92425 12.7723C7.58287 13.0096 7.56253 13.597 7.88967 13.7708C8.03601 13.8484 9.59512 13.8937 12.1289 13.8937C16.4789 13.8937 16.5128 13.8886 16.5128 13.2388C16.5128 12.6166 16.3146 12.5874 12.0855 12.5874C8.75358 12.5874 8.15171 12.6141 7.92425 12.7723ZM19.2888 15.3424C19.2002 15.4303 19.1452 15.8613 19.1452 16.4664C19.1452 17.3152 19.1764 17.4645 19.3766 17.5707C20.0521 17.9295 20.3417 17.5788 20.3417 16.4027C20.3417 15.4042 20.2402 15.1999 19.7435 15.1999C19.5724 15.1999 19.3677 15.264 19.2888 15.3424ZM7.86765 15.9219C7.56325 16.0979 7.59687 16.6875 7.92425 16.915C8.15171 17.0732 8.75358 17.0999 12.0855 17.0999C16.3146 17.0999 16.5128 17.0707 16.5128 16.4486C16.5128 15.7979 16.4817 15.7933 12.1069 15.7972C9.59309 15.7995 7.99832 15.8464 7.86765 15.9219ZM7.80184 19.1424C7.72287 19.2208 7.65825 19.4238 7.65825 19.5936C7.65825 20.1869 7.6622 20.1874 12.0855 20.1874C16.5088 20.1874 16.5128 20.1869 16.5128 19.5936C16.5128 19.4238 16.4482 19.2208 16.3692 19.1424C16.1634 18.9381 8.00765 18.9381 7.80184 19.1424ZM19.2888 19.1424C19.2002 19.2303 19.1452 19.6613 19.1452 20.2663C19.1452 21.1152 19.1764 21.2644 19.3766 21.3707C20.0521 21.7295 20.3417 21.3788 20.3417 20.2027C20.3417 19.2041 20.2402 18.9999 19.7435 18.9999C19.5724 18.9999 19.3677 19.064 19.2888 19.1424Z" fill="#091E3D"/>
</svg>
