<svg width="37" height="25" viewBox="0 0 37 25" fill="none" xmlns="http://www.w3.org/2000/svg">
<path d="M0.994499 19.895H0V24.7115H0.994499V19.895Z" fill="#091E3D"/>
<path d="M36.8009 19.895H35.8064V24.7115H36.8009V19.895Z" fill="#091E3D"/>
<path d="M36.309 17.1995H0.497989C0.365912 17.1995 0.239248 17.1471 0.145855 17.0537C0.0524618 16.9603 0 16.8336 0 16.7015V13.0895C0.000793843 12.458 0.252008 11.8526 0.698547 11.4061C1.14509 10.9595 1.75049 10.7083 2.38199 10.7075H34.419C35.0505 10.7083 35.6559 10.9595 36.1024 11.4061C36.549 11.8526 36.8002 12.458 36.801 13.0895V16.7015C36.801 16.8326 36.7493 16.9583 36.6572 17.0516C36.5651 17.1448 36.44 17.1979 36.309 17.1995ZM1.0005 16.205H35.811V13.091C35.8102 12.7234 35.6637 12.3711 35.4036 12.1113C35.1435 11.8515 34.7911 11.7054 34.4235 11.705H2.38199C2.01453 11.7054 1.66222 11.8515 1.40238 12.1114C1.14254 12.3712 0.996387 12.7235 0.99599 13.091L1.0005 16.205Z" fill="#091E3D"/>
<path d="M33.1621 11.702H3.63761C3.5058 11.7016 3.37951 11.649 3.28644 11.5556C3.19337 11.4623 3.14111 11.3358 3.14111 11.204V2.88051C3.14191 2.24901 3.39312 1.64362 3.83966 1.19708C4.2862 0.750543 4.89161 0.499329 5.52311 0.498535H31.2841C31.9156 0.499329 32.521 0.750543 32.9676 1.19708C33.4141 1.64362 33.6653 2.24901 33.6661 2.88051V11.204C33.6661 11.2699 33.653 11.3352 33.6276 11.396C33.6022 11.4568 33.565 11.512 33.5181 11.5583C33.4712 11.6046 33.4156 11.6412 33.3545 11.6659C33.2934 11.6905 33.228 11.7028 33.1621 11.702ZM4.13412 10.7075H32.6641V2.88202C32.6637 2.51455 32.5175 2.16224 32.2577 1.9024C31.9979 1.64256 31.6456 1.4964 31.2781 1.496H5.52311C5.15564 1.4964 4.80335 1.64256 4.54351 1.9024C4.28367 2.16224 4.13751 2.51455 4.13711 2.88202L4.13412 10.7075Z" fill="#091E3D"/>
<path d="M16.305 11.7021H6.46647C6.33465 11.7017 6.20837 11.6491 6.1153 11.5557C6.02223 11.4624 5.96997 11.3359 5.96997 11.2041V6.79858C5.96997 6.40076 6.128 6.01925 6.40931 5.73795C6.69061 5.45664 7.07215 5.29858 7.46997 5.29858H15.3135C15.7113 5.29858 16.0928 5.45664 16.3741 5.73795C16.6554 6.01925 16.8135 6.40076 16.8135 6.79858V11.2041C16.8135 11.2704 16.8003 11.336 16.7746 11.3971C16.7489 11.4583 16.7113 11.5136 16.6639 11.56C16.6165 11.6064 16.5604 11.6429 16.4988 11.6673C16.4371 11.6917 16.3712 11.7035 16.305 11.7021ZM6.96297 10.7061H15.813V6.79858C15.8126 6.66623 15.7598 6.53942 15.6662 6.44583C15.5726 6.35224 15.4458 6.29951 15.3135 6.29912H7.46997C7.33762 6.29951 7.21079 6.35224 7.11721 6.44583C7.02362 6.53942 6.97087 6.66623 6.97047 6.79858L6.96297 10.7061Z" fill="#091E3D"/>
<path d="M30.3389 11.7021H20.5004C20.3684 11.7021 20.2417 11.6496 20.1483 11.5562C20.0549 11.4628 20.0024 11.3362 20.0024 11.2041V6.79858C20.0024 6.40076 20.1605 6.01925 20.4418 5.73795C20.7231 5.45664 21.1046 5.29858 21.5024 5.29858H29.3459C29.7438 5.29858 30.1253 5.45664 30.4066 5.73795C30.6879 6.01925 30.8459 6.40076 30.8459 6.79858V11.2041C30.846 11.2703 30.8328 11.3358 30.8072 11.3968C30.7816 11.4578 30.7441 11.5131 30.6969 11.5595C30.6497 11.6058 30.5937 11.6423 30.5323 11.6668C30.4708 11.6913 30.4051 11.7033 30.3389 11.7021ZM20.997 10.7061H29.8469V6.79858C29.8465 6.66623 29.7938 6.53942 29.7002 6.44583C29.6066 6.35224 29.4798 6.29951 29.3475 6.29912H21.489C21.3566 6.29951 21.2298 6.35224 21.1362 6.44583C21.0426 6.53942 20.9898 6.66623 20.9894 6.79858L20.997 10.7061Z" fill="#091E3D"/>
<path d="M36.309 20.3915H0.497989C0.366171 20.3915 0.239731 20.3392 0.146381 20.2461C0.0530312 20.1531 0.000397043 20.0268 0 19.895V16.7015C0 16.5694 0.0524618 16.4427 0.145855 16.3493C0.239248 16.2559 0.365912 16.2035 0.497989 16.2035H36.309C36.441 16.2035 36.5677 16.2559 36.6611 16.3493C36.7545 16.4427 36.807 16.5694 36.807 16.7015V19.895C36.8066 20.0268 36.7539 20.1531 36.6606 20.2461C36.5672 20.3392 36.4408 20.3915 36.309 20.3915ZM1.0005 19.397H35.811V17.198H0.99599L1.0005 19.397Z" fill="#091E3D"/>
</svg>
