<svg width="25" height="25" viewBox="0 0 25 25" fill="none" xmlns="http://www.w3.org/2000/svg">
<path fill-rule="evenodd" clip-rule="evenodd" d="M11.718 0.108263C11.4562 0.186838 10.0843 1.49828 5.87827 5.6904C2.71041 8.84757 0.311963 11.3143 0.218707 11.5108C-0.173084 12.3362 -0.0311477 13.299 0.585571 13.9995C0.990167 14.4589 1.43768 14.6844 2.16055 14.7927L2.6153 14.8609L2.6456 18.8821L2.6759 22.9032L2.94971 23.4606C3.2415 24.0547 3.58001 24.3934 4.2286 24.7403C4.60778 24.9431 4.77367 24.9573 7.11073 24.9861C9.56411 25.0164 9.59305 25.0144 9.82335 24.7981L10.0562 24.5793L10.0568 21.4935C10.0571 19.6902 10.0989 18.2579 10.1574 18.0474C10.2124 17.8493 10.3947 17.5716 10.5626 17.4305L10.8677 17.1738L12.556 17.2043C14.1883 17.2339 14.2527 17.2427 14.4965 17.4719C14.6351 17.6023 14.7923 17.8662 14.8457 18.0583C14.9004 18.2553 14.9429 19.7525 14.9432 21.4935L14.9438 24.5793L15.1767 24.7981C15.407 25.0144 15.4359 25.0164 17.8893 24.9861C20.2263 24.9573 20.3922 24.9431 20.7714 24.7403C21.42 24.3934 21.7585 24.0547 22.0503 23.4606L22.3241 22.9032L22.3544 18.8821L22.3847 14.8609L22.8394 14.7927C23.5623 14.6844 24.0098 14.4589 24.4144 13.9995C25.0311 13.299 25.1731 12.3362 24.7813 11.5108C24.6879 11.3142 22.2907 8.84913 19.1217 5.69138C14.3993 0.985585 13.5675 0.197002 13.2218 0.0992717C12.7427 -0.036182 12.1878 -0.0328591 11.718 0.108263Z" fill="#091E3D"/>
</svg>
