<svg width="25" height="26" viewBox="0 0 25 26" fill="none" xmlns="http://www.w3.org/2000/svg">
<path d="M12.6654 12.8885C13.8381 12.8913 14.9851 12.546 15.9614 11.8963C16.9376 11.2466 17.6989 10.3218 18.149 9.23893C18.5991 8.1561 18.7176 6.96404 18.4895 5.81379C18.2614 4.66355 17.697 3.60689 16.8679 2.77771C16.0387 1.94853 14.982 1.38414 13.8318 1.15607C12.6815 0.928003 11.4895 1.04651 10.4066 1.49658C9.32381 1.94665 8.39895 2.70802 7.74925 3.68422C7.09955 4.66043 6.75425 5.80752 6.75711 6.98016C6.76357 8.54515 7.38813 10.0442 8.49475 11.1508C9.60138 12.2574 11.1004 12.882 12.6654 12.8885V12.8885ZM12.6654 15.847C8.74629 15.847 0.834351 17.8434 0.834351 21.7697V24.7282H24.4979V21.7625C24.4979 17.8434 16.5802 15.847 12.6654 15.847Z" stroke="#091E3D"/>
</svg>
